<?xml version="1.0" encoding="UTF-8"?>
<svg version="1.1" xmlns="http://www.w3.org/2000/svg" width="600" height="1050">
<path d="M0 0 C198 0 396 0 600 0 C600 346.5 600 693 600 1050 C402 1050 204 1050 0 1050 C0 703.5 0 357 0 0 Z " fill="#FEFEFE" transform="translate(0,0)"/>
<path d="M0 0 C7.40646467 3.90319088 9.97490229 10.69512406 12.93359375 18.015625 C31.42399912 62.19711808 63.19573386 94.31095413 106.74609375 114.265625 C108.7432826 115.04595416 110.75174034 115.78970444 112.76342773 116.53173828 C120.18801658 119.27996068 125.05191152 121.87726055 128.74609375 129.265625 C129.44996219 136.36464095 129.54251121 142.4684325 125.62109375 148.58203125 C121.5331952 152.25262349 117.04656029 154.5559682 111.484375 154.47265625 C110.00725081 154.36406342 108.53165824 154.23229798 107.05859375 154.078125 C106.34509766 154.02076172 105.63160156 153.96339844 104.89648438 153.90429688 C102.51111177 153.70952984 100.12900058 153.48849821 97.74609375 153.265625 C87.82139157 152.34089561 77.95562698 152.06203595 67.99609375 152.078125 C67.24430847 152.07906158 66.49252319 152.07999817 65.71795654 152.08096313 C41.81052811 152.14550906 19.28968798 155.40326101 -2.25390625 166.265625 C-2.86459961 166.56839355 -3.47529297 166.87116211 -4.10449219 167.18310547 C-21.04023093 175.72331115 -33.56973172 190.44687525 -46.79467773 203.72460938 C-48.64029585 205.57378963 -50.48615311 207.42273122 -52.33222961 209.27145386 C-56.28523581 213.23071474 -60.23650861 217.19169839 -64.18667412 221.15379333 C-69.90217457 226.88637261 -75.62147325 232.6151511 -81.34185804 238.34285599 C-90.63174099 247.64464374 -99.92010628 256.94794503 -109.20678711 266.25292969 C-109.76092512 266.80815782 -110.31506312 267.36338595 -110.88599319 267.93543917 C-118.76783595 275.83292716 -126.64819541 283.73189364 -134.52798564 291.63142949 C-135.36237616 292.46790998 -135.36237616 292.46790998 -136.21362305 293.32128906 C-136.76919852 293.87825806 -137.32477399 294.43522706 -137.89718508 295.00907391 C-147.15893415 304.29385215 -156.42453785 313.57477262 -165.69331223 322.85253763 C-171.40195912 328.56703292 -177.10732862 334.28476199 -182.8085087 340.00670689 C-187.1697271 344.38324479 -191.53609928 348.75460652 -195.90441704 353.12405777 C-197.69564306 354.91743477 -199.48514267 356.712538 -201.27280045 358.50947189 C-203.70934234 360.95816923 -206.15194537 363.40065584 -208.59617615 365.8416748 C-209.6592991 366.91455946 -209.6592991 366.91455946 -210.74389929 368.00911856 C-216.87121337 374.10506694 -221.74931539 377.31545448 -230.50390625 377.640625 C-236.29968083 377.58645888 -239.90134531 376.03305393 -244.25390625 372.265625 C-248.46635385 367.72914297 -249.4530424 364.25140725 -249.69140625 358.140625 C-249.75199219 357.06554687 -249.81257812 355.99046875 -249.875 354.8828125 C-248.40285781 346.30920453 -241.2899577 339.87294687 -235.30387878 333.98175049 C-234.12965102 332.80791121 -234.12965102 332.80791121 -232.93170148 331.610358 C-230.32505361 329.00811045 -227.70786183 326.41673991 -225.09057617 323.82519531 C-223.21201354 321.95403277 -221.33407197 320.08226647 -219.45692444 318.20968628 C-215.42158147 314.1863756 -211.38100983 310.16838 -207.33699608 306.15378571 C-201.47831476 300.33735394 -195.62998009 294.51060369 -189.78443662 288.68097171 C-180.28282311 279.20540225 -170.7759881 269.73509219 -161.2644043 260.26953125 C-160.69596006 259.70383276 -160.12751583 259.13813428 -159.54184601 258.55529341 C-153.20419233 252.24844052 -146.86553876 245.94259361 -140.52606201 239.63757324 C-138.22885759 237.35280758 -135.9316771 235.06801785 -133.63452148 232.78320312 C-133.0676833 232.21941473 -132.50084512 231.65562633 -131.91683003 231.07475343 C-122.44098628 221.64944459 -112.97303309 212.2162508 -103.51100808 202.77706981 C-97.68636343 196.96717889 -91.8550378 191.16415803 -86.01470885 185.370033 C-82.00766382 181.39371995 -78.00794752 177.41013155 -74.01373955 173.42092422 C-71.71493742 171.12549086 -69.41196811 168.83454045 -67.10208511 166.55025101 C-45.01712433 144.70139809 -30.78825605 121.34878337 -26.25390625 90.265625 C-26.0847168 89.22108154 -25.91552734 88.17653809 -25.74121094 87.1003418 C-24.30914347 77.61066913 -23.94337114 68.35985223 -23.99316406 58.77758789 C-24.00388095 56.33389402 -23.99320003 53.89093739 -23.98046875 51.44726562 C-23.97327552 42.36815431 -24.50615432 33.57395391 -25.78857422 24.58374023 C-26.8792525 16.80650593 -27.02505387 10.83666663 -22.25390625 4.265625 C-16.73534116 -2.23051448 -7.77225782 -2.5323821 0 0 Z " fill="#A01919" transform="translate(265.25390625,444.734375)"/>
<path d="M0 0 C1.61575928 0.01909424 1.61575928 0.01909424 3.26416016 0.03857422 C62.34265332 1.10060032 117.0659591 29.1964895 157.640625 71.19921875 C177.37777703 92.45700042 192.29627606 117.36085041 202.8125 144.3125 C203.28429687 145.50230469 203.75609375 146.69210937 204.2421875 147.91796875 C210.36765378 164.14474743 219.01670762 188.77836387 215.8125 206.3125 C213.80432866 210.70338257 211.34410697 213.52807601 206.8125 215.3125 C201.84898296 216.01689351 197.89845884 215.84560707 193.375 213.625 C187.39881376 208.23185632 187.02028491 202.45139387 186 194.8125 C179.8661149 153.39077007 161.00307074 116.86633912 132.14648438 86.70947266 C131.00891327 85.51818754 129.88571776 84.31320236 128.765625 83.10546875 C118.62913356 72.4708164 106.1687761 64.13322494 93.8125 56.3125 C92.76320313 55.63574219 91.71390625 54.95898438 90.6328125 54.26171875 C63.49568017 37.70740453 30.07169928 28.78301489 -1.61376953 28.81542969 C-7.67657483 28.73875464 -11.23865918 27.90169835 -16.1875 24.3125 C-19.08358718 21.1986619 -20.09180695 17.98235137 -20.6875 13.8125 C-19.95806838 8.70647868 -18.24391267 5.0922467 -14.2421875 1.62890625 C-9.55540213 -0.39084652 -5.04726849 -0.08736111 0 0 Z " fill="#020202" transform="translate(365.1875,246.6875)"/>
<path d="M0 0 C40.36497756 8.83510787 76.36266001 33.33883095 98.734375 68.09375 C111.58792526 88.58910066 125.61723271 118.20816197 121.734375 143.09375 C119.850595 147.3134172 118.43333521 148.69811215 114.421875 150.96875 C109.91052443 152.34509424 106.30823253 153.24241369 101.84375 151.25 C97.90463288 148.80046498 95.74474858 146.23287875 94.33984375 141.703125 C93.39570612 137.63419638 92.66019138 133.52983701 91.91333008 129.42138672 C85.87885343 96.41880748 68.0695124 67.85999408 40.60473633 48.31567383 C22.34865479 35.77876677 0.24385884 27.71901201 -21.9296875 26.8984375 C-22.73164551 26.8665332 -23.53360352 26.83462891 -24.35986328 26.80175781 C-25.92279049 26.74783096 -27.48649869 26.71227924 -29.05029297 26.69824219 C-35.39183189 26.50826539 -38.8545537 24.18757507 -43.640625 20.03125 C-46.15230346 15.49090817 -46.14196125 11.15867647 -45.265625 6.09375 C-37.98543389 -7.96646642 -12.95006379 -2.50742792 0 0 Z " fill="#020202" transform="translate(389.265625,318.90625)"/>
<path d="M0 0 C2.29421555 2.29421555 2.92635404 4.02970031 4.07543945 7.05371094 C4.68165886 8.63741486 4.68165886 8.63741486 5.30012512 10.25311279 C5.73346664 11.40192932 6.16680817 12.55074585 6.61328125 13.734375 C7.06470993 14.91912415 7.51613861 16.10387329 7.98124695 17.32452393 C8.939482 19.84222456 9.8956911 22.36058105 10.84838867 24.88037109 C12.05391962 28.06882863 13.26516054 31.25507275 14.47878742 34.44045639 C15.65061788 37.51683683 16.81950595 40.59433278 17.98828125 43.671875 C18.41555008 44.79640076 18.84281891 45.92092651 19.28303528 47.07952881 C22.28599525 55.01981138 25.16910882 62.9970702 28 71 C27.30479248 71.68497559 26.60958496 72.36995117 25.89331055 73.07568359 C22.01234124 76.90688205 18.15907025 80.71830199 14.625 84.875 C9.76026294 90.57201738 4.33251998 95.74628574 -1 101 C-5.19629403 99.44834709 -7.47481777 96.36761999 -10.125 92.9375 C-10.60146973 92.32479248 -11.07793945 91.71208496 -11.56884766 91.08081055 C-31.89315298 64.29395356 -31.89315298 64.29395356 -30.71850586 54.70117188 C-29.90442588 51.64069586 -28.69153462 49.25017044 -27.1484375 46.484375 C-26.5510376 45.40905518 -25.9536377 44.33373535 -25.33813477 43.22583008 C-24.69030029 42.07880615 -24.04246582 40.93178223 -23.375 39.75 C-22.70681126 38.55696239 -22.03876301 37.36384608 -21.37084961 36.1706543 C-14.50734401 23.95904198 -7.29630722 11.95718515 0 0 Z " fill="#A11A1A" transform="translate(324,404)"/>
<path d="M0 0 C7.24416844 2.04509448 14.2339552 4.52416741 21.23828125 7.2734375 C22.28090622 7.67905914 23.32353119 8.08468079 24.39775085 8.50259399 C27.7040898 9.78978085 31.00833492 11.08224451 34.3125 12.375 C36.51743742 13.23473595 38.72251444 14.09411396 40.92773438 14.953125 C45.1172934 16.58539618 49.3061935 18.2193402 53.49462891 19.85449219 C59.65492812 22.25768367 65.82351252 24.63869365 72 27 C68.5403004 29.89258767 65.04824013 32.25007286 61.125 34.46875 C59.98426025 35.117229 58.84352051 35.76570801 57.66821289 36.43383789 C56.44568005 37.12292204 55.22293814 37.81163539 54 38.5 C51.47724968 39.92469461 48.95540642 41.35099028 46.43359375 42.77734375 C45.8043248 43.13259628 45.17505585 43.48784882 44.52671814 43.85386658 C40.54305008 46.10802102 36.59282025 48.41140366 32.66015625 50.75390625 C31.70818359 51.3159375 30.75621094 51.87796875 29.77539062 52.45703125 C28.00564934 53.50435115 26.24225039 54.56248536 24.48632812 55.6328125 C23.69806641 56.09558594 22.90980469 56.55835938 22.09765625 57.03515625 C21.42226807 57.4412915 20.74687988 57.84742676 20.05102539 58.26586914 C16.23192868 59.63285209 13.23579557 58.10019253 9.64453125 56.57421875 C8.36210682 55.95573859 7.08501513 55.32611991 5.8125 54.6875 C5.12414062 54.34211182 4.43578125 53.99672363 3.7265625 53.64086914 C-1.9001012 50.7309395 -7.22407319 47.4388119 -12.5 43.9375 C-13.22856201 43.45563232 -13.95712402 42.97376465 -14.70776367 42.47729492 C-19.81325233 39.01158488 -24.44128883 35.15453203 -29 31 C-27.34763349 26.70932454 -24.1094793 23.8570447 -20.8984375 20.703125 C-20.30197418 20.10949158 -19.70551086 19.51585815 -19.0909729 18.90423584 C-17.1903019 17.01473373 -15.28278526 15.13231608 -13.375 13.25 C-12.08287532 11.96790935 -10.79120324 10.68536239 -9.5 9.40234375 C-6.33855521 6.26291568 -3.1709539 3.12982199 0 0 Z " fill="#A01919" transform="translate(362,486)"/>
<path d="M0 0 C1.52121365 15.12512222 2.75956822 30.26225567 3.85986328 45.42358398 C4.12696047 49.08940683 4.40124545 52.75464948 4.67578125 56.41992188 C4.84939368 58.79163484 5.02258588 61.16337861 5.1953125 63.53515625 C5.27653351 64.61040054 5.35775452 65.68564484 5.44143677 66.79347229 C5.94637572 73.87404792 6.09182023 80.90235577 6 88 C2.83136851 87.42225703 -0.09819246 86.69423374 -3.10571289 85.54467773 C-4.26962303 85.10302528 -4.26962303 85.10302528 -5.45704651 84.65245056 C-6.28719772 84.33272781 -7.11734894 84.01300507 -7.97265625 83.68359375 C-8.85038193 83.34884537 -9.7281076 83.01409698 -10.63243103 82.66920471 C-12.49663173 81.95735416 -14.36010515 81.2435965 -16.22290039 80.52807617 C-18.99923381 79.461798 -21.77769122 78.40123568 -24.55664062 77.34179688 C-36.75341059 72.68181206 -48.89108825 67.88343281 -61 63 C-61 59.27125517 -59.73327491 58.37689365 -57.20343018 55.81906128 C-56.64395691 55.2688028 -56.08448364 54.71854431 -55.50805664 54.15161133 C-54.9244487 53.56595901 -54.34084076 52.9803067 -53.73954773 52.37690735 C-51.80359823 50.43794329 -49.85710151 48.50994915 -47.91015625 46.58203125 C-46.56675554 45.2416867 -45.22394351 43.90075188 -43.88169861 42.55924988 C-41.06571983 39.74787822 -38.24489434 36.94149604 -35.42016602 34.13891602 C-31.79029809 30.53735791 -28.16918937 26.92715307 -24.55121708 23.31364918 C-21.77831075 20.54488935 -19.00258389 17.77897306 -16.22579765 15.01410484 C-14.88921394 13.68323795 -13.55311052 12.35188852 -12.21748543 11.02005959 C-10.35471362 9.16412402 -8.488596 7.31162549 -6.62133789 5.46020508 C-5.78516434 4.62570831 -5.78516434 4.62570831 -4.93209839 3.77435303 C-1.11468541 0 -1.11468541 0 0 0 Z " fill="#A11A1A" transform="translate(437,412)"/>
<path d="M0 0 C34.65218793 1.83748175 34.65218793 1.83748175 49.59375 3.31982422 C55.43515162 3.89062682 61.26183641 4.2443979 67.125 4.5 C74.19895177 4.81071745 81.05083326 5.57132899 88 7 C82.91004031 13.21674889 77.27604984 18.84131818 71.58080101 24.49436378 C69.82596769 26.23631576 68.07438095 27.98147596 66.32356262 29.72746277 C62.61435867 33.42530954 58.90120925 37.11917861 55.1875 40.8125 C50.86481727 45.11157365 46.54377125 49.41226655 42.22689247 53.71716881 C40.49998508 55.43758824 38.77009903 57.15497422 37.04008484 58.87226868 C35.98775821 59.92096492 34.93557052 60.96980061 33.88354492 62.01879883 C32.96232346 62.93478348 32.04110199 63.85076813 31.09196472 64.79450989 C28.97010257 66.81724072 28.97010257 66.81724072 28 69 C27.34 69 26.68 69 26 69 C25.39696045 67.38665771 25.39696045 67.38665771 24.78173828 65.74072266 C14.43988348 38.07011724 14.43988348 38.07011724 3.88330078 10.48095703 C3.51188965 9.5217334 3.14047852 8.56250977 2.7578125 7.57421875 C2.4395752 6.75526123 2.12133789 5.93630371 1.79345703 5.0925293 C1.15536861 3.40974288 0.56911572 1.70734715 0 0 Z " fill="#A01919" transform="translate(337,394)"/>
</svg>
